#!OML:ASF E:\Style4\Style4.ASF
:FULLY-SPECIFIED
:DEGREES
3602
root -0.556941 17.6114 -2.95215 4.03701 0.172241 2.01559
lowerback 12.2202 2.14736 0.0850417
upperback 5.50119 2.8565 0.696276
thorax -1.1229 1.41725 0.305414
lowerneck -2.3127 -5.47149 -6.4269
upperneck 4.36391 -7.23133 4.10613
head 2.21823 -3.61995 2.22637
rclavicle 1.43125e-014 -4.77083e-015
rhumerus 31.255 5.18605 -67.2379
rradius 44.2123
rwrist -70.4914
rhand -3.55498 8.28005
rfingers 7.12502
rthumb 22.1812 -20.4673
lclavicle 1.43125e-014 -4.77083e-015
lhumerus 32.9047 -21.4777 62.3276
lradius 55.393
lwrist 67.8589
lhand 3.31876 30.8748
lfingers 7.12502
lthumb 28.7651 58.6787
rfemur -25.0924 -0.746359 17.7422
rtibia 38.9349
rfoot -16.9107 -11.4815
rtoes -9.58058
lfemur -22.1452 1.40797 -20.2545
ltibia 36.8541
lfoot -18.2092 8.87474
ltoes -14.5185
3603
root -0.559488 17.6097 -2.95203 4.03725 0.159975 2.04865
lowerback 12.1855 2.15341 0.0595002
upperback 5.51542 2.86131 0.686261
thorax -1.0901 1.41944 0.31046
lowerneck -2.26334 -5.45823 -6.4696
upperneck 4.31074 -7.21804 4.18955
head 2.19718 -3.61256 2.26392
rclavicle 2.44505e-014 -6.36111e-015
rhumerus 31.2322 5.25689 -67.1647
rradius 44.2949
rwrist -70.5584
rhand -3.54885 8.20498
rfingers 7.12502
rthumb 22.1871 -20.5417
lclavicle 2.44505e-014 -6.36111e-015
lhumerus 32.8996 -21.5525 62.317
lradius 55.4498
lwrist 67.7717
lhand 3.29287 30.8684
lfingers 7.12502
lthumb 28.7404 58.6765
rfemur -25.1317 -0.721406 17.7137
rtibia 39.0003
rfoot -16.9584 -11.4422
rtoes -9.36122
lfemur -22.1704 1.49715 -20.2844
ltibia 36.9084
lfoot -18.1949 8.71379
ltoes -14.275
3604
root -0.561522 17.6072 -2.9515 4.05668 0.127967 2.0806
lowerback 12.1286 2.15985 0.0159042
upperback 5.52932 2.86481 0.682864
thorax -1.04685 1.42063 0.333505
lowerneck -2.24597 -5.46283 -6.45666
upperneck 4.26158 -7.22458 4.18468
head 2.17726 -3.61565 2.26055
rclavicle 5.36719e-015 7.15625e-015
rhumerus 31.2409 5.34433 -67.0991
rradius 44.3512
rwrist -70.5836
rhand -3.53105 8.20941
rfingers 7.12502
rthumb 22.2042 -20.5352
lclavicle 5.36719e-015 7.15625e-015
lhumerus 32.9134 -21.5829 62.2768
lradius 55.4674
lwrist 67.6655
lhand 3.36433 30.9594
lfingers 7.12502
lthumb 28.8086 58.7559
rfemur -25.1871 -0.702411 17.6847
rtibia 39.0553
rfoot -16.9662 -11.4145
rtoes -9.397
lfemur -22.2054 1.51317 -20.3138
ltibia 36.944
lfoot -18.1882 8.69642
ltoes -14.1329
3605
root -0.563318 17.6056 -2.95122 4.04764 0.108542 2.0819
lowerback 12.117 2.15263 0.0241971
upperback 5.54629 2.85603 0.683028
thorax -1.02244 1.41639 0.331045
lowerneck -2.28165 -5.4805 -6.4023
upperneck 4.27178 -7.24463 4.10766
head 2.18174 -3.626 2.22347
rclavicle -1.88845e-014 -1.59028e-015
rhumerus 31.2699 5.38202 -67.1048
rradius 44.3777
rwrist -70.5691
rhand -3.43265 8.2191
rfingers 7.12502
rthumb 22.2987 -20.5143
lclavicle -1.88845e-014 -1.59028e-015
lhumerus 32.886 -21.5736 62.2199
lradius 55.5003
lwrist 67.444
lhand 3.71945 31.1422
lfingers 7.12502
lthumb 29.1478 58.8804
rfemur -25.1972 -0.670883 17.6884
rtibia 39.0963
rfoot -16.9642 -11.4713
rtoes -9.46379
lfemur -22.2063 1.54326 -20.3091
ltibia 36.9662
lfoot -18.232 8.69648
ltoes -14.2342
3606
root -0.564797 17.605 -2.9512 4.03766 0.120906 2.05252
lowerback 12.1116 2.14051 0.0644403
upperback 5.55983 2.84479 0.705953
thorax -1.00459 1.41117 0.334217
lowerneck -2.36102 -5.48961 -6.46248
upperneck 4.35329 -7.25194 4.12473
head 2.22737 -3.62988 2.23698
rclavicle -1.74931e-014 1.11319e-014
rhumerus 31.274 5.45652 -67.0205
rradius 44.4323
rwrist -70.6052
rhand -3.30038 8.22207
rfingers 7.12502
rthumb 22.4257 -20.4961
lclavicle -1.74931e-014 1.11319e-014
lhumerus 32.8658 -21.5514 62.2218
lradius 55.5278
lwrist 67.2641
lhand 4.05786 31.3503
lfingers 7.12502
lthumb 29.4709 59.0321
rfemur -25.1981 -0.666795 17.7228
rtibia 39.1101
rfoot -16.9406 -11.4947
rtoes -9.30888
lfemur -22.2111 1.527 -20.2688
ltibia 36.9917
lfoot -18.2695 8.72635
ltoes -14.2986
